{"asset":{"version":"2.0","generator":"Blockbench 5.0.7 glTF exporter"},"scenes":[{"nodes":[0,1],"name":"blockbench_export"}],"scene":0,"nodes":[{"translation":[0,0.5,0],"name":"cylinder","mesh":0},{"rotation":[0.7071067811865475,0,0,0.7071067811865476],"translation":[0,2.6875,-0.1875],"name":"cylinder","mesh":1}],"bufferViews":[{"buffer":0,"byteOffset":0,"byteLength":720,"target":34962,"byteStride":12},{"buffer":0,"byteOffset":720,"byteLength":720,"target":34962,"byteStride":12},{"buffer":0,"byteOffset":1440,"byteLength":480,"target":34962,"byteStride":8},{"buffer":0,"byteOffset":1920,"byteLength":144,"target":34963},{"buffer":0,"byteOffset":2064,"byteLength":1296,"target":34962,"byteStride":12},{"buffer":0,"byteOffset":3360,"byteLength":1296,"target":34962,"byteStride":12},{"buffer":0,"byteOffset":4656,"byteLength":864,"target":34962,"byteStride":8},{"buffer":0,"byteOffset":5520,"byteLength":288,"target":34963}],"buffers":[{"byteLength":5808,"uri":"data:application/octet-stream;base64,"}],"accessors":[{"bufferView":0,"componentType":5126,"count":60,"max":[0.15625,1.5,0.125],"min":[-0.15625,-0.5,-0.125],"type":"VEC3"},{"bufferView":1,"componentType":5126,"count":60,"max":[0.847998321056366,1,1],"min":[-0.847998321056366,-1,-1],"type":"VEC3"},{"bufferView":2,"componentType":5126,"count":60,"max":[0.2578125,0.5859375],"min":[0,0.234375],"type":"VEC2"},{"bufferView":3,"componentType":5123,"count":72,"max":[59],"min":[0],"type":"SCALAR"},{"bufferView":4,"componentType":5126,"count":108,"max":[0.7938566207885742,0.4375,0.6875],"min":[-0.7938566207885742,0,-0.6875],"type":"VEC3"},{"bufferView":5,"componentType":5126,"count":108,"max":[0.8660253882408142,1,1],"min":[-0.8660253882408142,-1,-1],"type":"VEC3"},{"bufferView":6,"componentType":5126,"count":108,"max":[0.4375,0.390625],"min":[0.0023304687347263098,0],"type":"VEC2"},{"bufferView":7,"componentType":5123,"count":144,"max":[107],"min":[0],"type":"SCALAR"}],"materials":[{"pbrMetallicRoughness":{"metallicFactor":0,"roughnessFactor":1,"baseColorTexture":{"index":0}},"alphaMode":"MASK","alphaCutoff":0.05,"doubleSided":true}],"textures":[{"sampler":0,"source":0,"name":"Scoreboard"}],"samplers":[{"magFilter":9728,"minFilter":9728,"wrapS":33071,"wrapT":33071}],"images":[{"mimeType":"image/png","uri":"data:image/png;base64,"}],"meshes":[{"primitives":[{"mode":4,"attributes":{"POSITION":0,"NORMAL":1,"TEXCOORD_0":2},"indices":3,"material":0}]},{"primitives":[{"mode":4,"attributes":{"POSITION":4,"NORMAL":5,"TEXCOORD_0":6},"indices":7,"material":0}]}]}